<?xml version="1.0" standalone="no"?>
<!DOCTYPE svg PUBLIC "-//W3C//DTD SVG 20010904//EN"
 "http://www.w3.org/TR/2001/REC-SVG-20010904/DTD/svg10.dtd">
<svg version="1.0" xmlns="http://www.w3.org/2000/svg"
 width="254.000000pt" height="254.000000pt" viewBox="0 0 254.000000 254.000000"
 preserveAspectRatio="xMidYMid meet">
<metadata>
Created by potrace 1.14, written by Peter Selinger 2001-2017
</metadata>
<g transform="translate(0.000000,254.000000) scale(0.100000,-0.100000)"
fill="#000000" stroke="none">
<path d="M1200 2443 c-528 -31 -973 -418 -1081 -938 -24 -116 -29 -320 -10
-425 107 -585 593 -989 1181 -983 555 6 1052 431 1135 973 4 25 9 54 11 65 7
32 6 226 -1 280 -46 358 -253 676 -564 864 -193 117 -441 178 -671 164z m216
-98 c288 -38 581 -218 743 -458 85 -126 159 -301 175 -412 4 -23 9 -52 12 -65
10 -51 3 -262 -12 -341 -73 -387 -361 -711 -739 -832 -713 -228 -1440 330
-1409 1082 2 57 6 106 8 110 2 3 7 26 11 50 36 243 230 536 457 689 214 145
496 211 754 177z"/>
<path d="M1268 2276 c-1 -2 -46 -6 -99 -10 -174 -11 -358 -81 -451 -169 -102
-98 -150 -205 -151 -342 -2 -144 52 -269 159 -369 42 -39 165 -106 195 -106
10 0 107 89 221 203 270 269 348 328 483 365 143 39 317 21 443 -48 30 -16 57
-28 59 -27 7 8 -98 145 -153 201 -115 115 -243 196 -389 245 -99 32 -128 39
-225 47 -36 3 -70 7 -77 9 -6 2 -13 2 -15 1z m-33 -143 c8 -8 15 -18 15 -23 0
-21 -34 -40 -71 -40 -48 0 -52 -20 -11 -55 34 -30 127 -36 147 -8 23 31 35 4
35 -83 0 -84 -6 -97 -34 -69 -23 24 -102 19 -139 -7 -46 -33 -108 -30 -147 7
-31 30 -70 41 -70 20 0 -7 7 -18 15 -25 22 -18 18 -49 -7 -59 -25 -9 -141 -7
-158 4 -16 10 -12 43 8 57 11 8 21 31 25 57 8 65 33 84 114 89 73 5 113 23
113 53 0 15 -7 19 -34 19 -49 0 -66 9 -66 36 0 35 23 41 142 42 83 0 112 -3
123 -15z m-312 -466 c74 -60 33 -165 -53 -135 -68 23 -66 145 2 193 22 15 23
14 29 -15 4 -17 13 -36 22 -43z"/>
<path d="M429 1824 c-64 -93 -127 -250 -145 -363 -3 -18 -8 -43 -10 -55 -11
-51 -4 -248 11 -321 71 -341 297 -619 585 -716 167 -56 291 -47 406 32 102 69
182 203 199 331 7 53 8 159 1 165 -3 3 -107 6 -231 6 l-225 1 0 126 c0 113 -2
126 -17 126 -122 3 -272 73 -373 174 -129 129 -196 324 -170 496 4 24 6 44 4
44 -2 0 -17 -21 -35 -46z m219 -718 c36 -38 83 -66 170 -101 40 -15 91 -44
113 -64 99 -84 104 -217 12 -302 -99 -93 -245 -87 -346 13 -124 124 -149 305
-74 540 l21 68 39 -63 c21 -34 51 -75 65 -91z"/>
<path d="M536 900 c1 -39 8 -87 15 -108 36 -111 137 -187 237 -178 65 6 105
27 131 71 29 50 26 54 -11 18 -55 -51 -106 -58 -185 -23 -49 21 -104 73 -128
121 -21 40 -45 118 -45 147 0 12 -4 22 -8 22 -5 0 -7 -32 -6 -70z"/>
<path d="M1691 1754 c-82 -17 -154 -53 -213 -107 -40 -37 -98 -106 -98 -118 0
-2 70 -65 155 -139 l155 -135 -55 -9 c-46 -7 -55 -12 -56 -30 -3 -57 -1 -166
5 -316 7 -156 6 -170 -17 -247 -44 -152 -146 -281 -282 -357 -30 -17 -29 -17
45 -12 297 20 582 176 725 396 51 79 61 105 72 189 l5 45 -23 -28 -24 -27 -1
56 c-2 64 -19 94 -30 51 -3 -15 -14 -31 -24 -36 -15 -8 -18 -3 -23 51 -4 44
-12 69 -32 95 -15 19 -29 33 -32 30 -3 -2 -7 -22 -10 -43 -3 -21 -21 -68 -39
-105 -19 -37 -34 -75 -34 -84 0 -13 -3 -14 -15 -4 -8 7 -15 20 -15 29 -1 14
-2 13 -11 -2 -14 -23 -5 -96 15 -135 9 -17 28 -40 42 -51 34 -26 30 -30 -22
-19 -118 25 -210 204 -174 337 l11 44 25 -53 c13 -29 26 -51 28 -49 2 2 6 24
10 48 7 54 42 131 88 196 45 63 62 116 60 184 l-1 53 22 -18 c85 -71 159 -192
175 -284 l8 -45 21 39 c24 46 27 43 58 -57 l23 -71 17 33 c23 46 26 62 30 181
3 81 -1 122 -15 178 -65 249 -300 397 -549 346z"/>
<path d="M1238 1327 l-96 -132 51 -9 c29 -5 53 -10 55 -11 1 -1 -13 -48 -32
-103 -19 -56 -32 -102 -30 -102 5 0 204 261 204 269 0 3 -24 5 -52 5 -29 -1
-56 0 -59 2 -3 2 9 49 28 105 18 56 32 103 31 105 -2 1 -47 -57 -100 -129z"/>
</g>
</svg>
